<?xml version="1.0" encoding="UTF-8"?>
<svg xmlns="http://www.w3.org/2000/svg" xmlns:xlink="http://www.w3.org/1999/xlink" width="107px" height="50px" viewBox="0 0 106 50" version="1.1">
<defs>
<clipPath id="clip1">
  <path d="M 1 1.601562 L 105 1.601562 L 105 48.800781 L 1 48.800781 Z M 1 1.601562 "/>
</clipPath>
<clipPath id="clip2">
  <path d="M 5.636719 1.65625 C 2.777344 9.03125 1.210938 16.941406 1.210938 25.195312 C 1.210938 33.445312 2.777344 41.359375 5.636719 48.726562 L 100.269531 48.726562 C 103.128906 41.359375 104.699219 33.445312 104.699219 25.195312 C 104.699219 16.941406 103.128906 9.027344 100.269531 1.65625 Z M 5.636719 1.65625 "/>
</clipPath>
<radialGradient id="radial0" gradientUnits="userSpaceOnUse" cx="-166.5674" cy="465.1875" fx="-166.5674" fy="465.1875" r="11.815" gradientTransform="matrix(4.902065,0,0,-4.43506,878.642965,2133.808193)">
<stop offset="0" style="stop-color:rgb(32.941176%,32.941176%,32.941176%);stop-opacity:1;"/>
<stop offset="0.1291" style="stop-color:rgb(30.980392%,30.980392%,30.980392%);stop-opacity:1;"/>
<stop offset="0.344" style="stop-color:rgb(25.882353%,26.27451%,26.27451%);stop-opacity:1;"/>
<stop offset="0.6181" style="stop-color:rgb(18.431373%,18.823529%,18.431373%);stop-opacity:1;"/>
<stop offset="0.9379" style="stop-color:rgb(5.490196%,5.490196%,5.490196%);stop-opacity:1;"/>
<stop offset="1" style="stop-color:rgb(0.784314%,0.784314%,0.784314%);stop-opacity:1;"/>
</radialGradient>
<clipPath id="clip3">
  <path d="M 32.320312 5.601562 L 53 5.601562 L 53 26.800781 L 32.320312 26.800781 Z M 32.320312 5.601562 "/>
</clipPath>
<clipPath id="clip4">
  <path d="M 47.203125 20.4375 L 47.125 20.515625 C 46.007812 21.660156 44.453125 22.375 42.730469 22.375 C 41.007812 22.375 39.453125 21.660156 38.335938 20.515625 L 38.257812 20.4375 L 33.410156 20.4375 L 33.597656 20.816406 C 35.289062 24.171875 38.746094 26.46875 42.730469 26.46875 C 46.71875 26.46875 50.167969 24.171875 51.859375 20.816406 L 52.050781 20.4375 Z M 32.710938 14.042969 L 32.671875 14.257812 C 32.554688 14.875 32.488281 15.503906 32.488281 16.148438 C 32.488281 16.546875 32.519531 16.945312 32.5625 17.328125 C 32.574219 17.429688 32.585938 17.535156 32.605469 17.640625 C 32.679688 18.164062 32.789062 18.679688 32.941406 19.179688 L 33 19.363281 L 37.433594 19.363281 L 37.238281 18.980469 C 36.972656 18.464844 36.78125 17.910156 36.667969 17.324219 C 36.652344 17.226562 36.632812 17.125 36.617188 17.023438 C 36.578125 16.738281 36.558594 16.445312 36.554688 16.148438 C 36.558594 15.535156 36.652344 14.945312 36.8125 14.382812 L 36.910156 14.042969 Z M 48.546875 14.042969 L 48.648438 14.382812 C 48.8125 14.945312 48.90625 15.535156 48.910156 16.148438 C 48.910156 16.230469 48.902344 16.308594 48.898438 16.386719 C 48.894531 16.449219 48.894531 16.511719 48.886719 16.574219 C 48.832031 17.433594 48.597656 18.25 48.222656 18.980469 L 48.027344 19.363281 L 52.460938 19.363281 L 52.515625 19.179688 C 52.777344 18.332031 52.921875 17.4375 52.953125 16.519531 C 52.953125 16.4375 52.960938 16.347656 52.96875 16.25 C 52.96875 16.21875 52.96875 16.1875 52.96875 16.148438 C 52.96875 15.503906 52.90625 14.875 52.792969 14.257812 L 52.753906 14.042969 Z M 33.117188 12.617188 L 32.984375 12.976562 L 37.425781 12.976562 L 37.503906 12.851562 C 38.59375 11.097656 40.523438 9.925781 42.730469 9.925781 C 44.9375 9.925781 46.867188 11.097656 47.957031 12.851562 L 48.03125 12.976562 L 52.480469 12.976562 L 52.347656 12.617188 C 50.917969 8.664062 47.15625 5.832031 42.730469 5.828125 C 38.304688 5.832031 34.546875 8.664062 33.117188 12.617188 "/>
</clipPath>
<linearGradient id="linear0" gradientUnits="userSpaceOnUse" x1="-165.4385" y1="508.2461" x2="-153.6261" y2="508.2461" gradientTransform="matrix(0.846467,2.757289,2.735265,-0.853283,-1210.099284,897.238132)">
<stop offset="0" style="stop-color:rgb(98.823529%,93.333333%,13.72549%);stop-opacity:1;"/>
<stop offset="0.1511" style="stop-color:rgb(98.431373%,91.764706%,13.72549%);stop-opacity:1;"/>
<stop offset="0.2514" style="stop-color:rgb(98.431373%,89.019608%,13.333333%);stop-opacity:1;"/>
<stop offset="0.337" style="stop-color:rgb(98.431373%,85.098039%,12.156863%);stop-opacity:1;"/>
<stop offset="0.4143" style="stop-color:rgb(98.039216%,79.607843%,11.764706%);stop-opacity:1;"/>
<stop offset="0.4854" style="stop-color:rgb(98.431373%,72.54902%,10.588235%);stop-opacity:1;"/>
<stop offset="0.5165" style="stop-color:rgb(98.431373%,68.627451%,10.588235%);stop-opacity:1;"/>
<stop offset="1" style="stop-color:rgb(98.431373%,68.627451%,10.588235%);stop-opacity:1;"/>
</linearGradient>
<clipPath id="clip5">
  <path d="M 12.042969 16 L 93 16 L 93 26 L 12.042969 26 Z M 12.042969 16 "/>
</clipPath>
<clipPath id="clip6">
  <path d="M 12.410156 19.917969 L 12.410156 25.433594 C 12.410156 25.5625 12.445312 25.691406 12.546875 25.777344 C 12.546875 25.777344 12.546875 25.777344 12.546875 25.78125 C 12.644531 25.863281 12.765625 25.882812 12.902344 25.882812 L 16.125 25.882812 C 16.257812 25.882812 16.382812 25.863281 16.484375 25.777344 C 16.582031 25.691406 16.613281 25.5625 16.613281 25.433594 L 16.613281 22.289062 C 16.613281 21.414062 16.570312 20.292969 16.515625 19.191406 C 15.058594 19.425781 13.695312 19.667969 12.410156 19.917969 M 17.742188 18.996094 L 19.78125 23.046875 C 19.828125 23.132812 19.898438 23.203125 19.980469 23.25 C 20.054688 23.289062 20.140625 23.3125 20.226562 23.3125 L 21.957031 23.3125 C 22.132812 23.320312 22.308594 23.214844 22.390625 23.054688 L 24.917969 18.050781 C 22.320312 18.347656 19.933594 18.664062 17.742188 18.996094 M 25.730469 17.960938 C 25.648438 19.40625 25.566406 21.078125 25.5625 22.289062 L 25.566406 25.433594 C 25.5625 25.484375 25.574219 25.523438 25.582031 25.570312 C 25.597656 25.648438 25.632812 25.722656 25.699219 25.78125 C 25.796875 25.863281 25.917969 25.886719 26.058594 25.886719 L 29.246094 25.886719 C 29.378906 25.886719 29.503906 25.863281 29.597656 25.78125 C 29.695312 25.691406 29.734375 25.5625 29.734375 25.433594 L 29.734375 17.554688 C 28.347656 17.6875 27.019531 17.820312 25.730469 17.960938 M 79.996094 25.433594 C 79.992188 25.5625 80.027344 25.691406 80.125 25.78125 C 80.171875 25.820312 80.234375 25.851562 80.296875 25.867188 C 80.347656 25.878906 80.414062 25.882812 80.480469 25.882812 L 92.453125 25.882812 C 92.582031 25.882812 92.707031 25.863281 92.804688 25.78125 C 92.90625 25.691406 92.941406 25.5625 92.9375 25.433594 L 92.9375 22.890625 C 92.941406 22.765625 92.90625 22.632812 92.804688 22.550781 C 92.707031 22.460938 92.582031 22.441406 92.453125 22.441406 L 84.378906 22.441406 C 84.175781 22.410156 84.21875 22.441406 84.191406 22.289062 L 84.191406 18.035156 C 84.21875 17.890625 84.175781 17.921875 84.378906 17.894531 L 90.984375 17.894531 C 91.121094 17.894531 91.246094 17.871094 91.34375 17.785156 C 91.449219 17.699219 91.484375 17.566406 91.484375 17.441406 L 91.484375 16.316406 C 87.496094 16.210938 83.667969 16.132812 79.996094 16.082031 Z M 62.570312 16.046875 L 62.007812 17.875 C 61.949219 18.035156 61.824219 18.546875 61.742188 18.902344 C 61.734375 18.921875 61.726562 18.945312 61.726562 18.964844 C 61.632812 18.609375 61.503906 18.011719 61.445312 17.820312 L 60.898438 16.070312 C 59.503906 16.085938 58.121094 16.109375 56.773438 16.140625 L 60.042969 25.574219 C 60.082031 25.792969 60.304688 25.882812 60.496094 25.882812 C 60.507812 25.882812 60.515625 25.882812 60.523438 25.882812 L 62.964844 25.882812 C 63.058594 25.886719 63.164062 25.871094 63.25 25.816406 C 63.347656 25.765625 63.417969 25.683594 63.449219 25.5625 L 66.746094 16.015625 C 65.332031 16.023438 63.9375 16.03125 62.570312 16.046875 M 71.859375 25.433594 C 71.859375 25.5625 71.890625 25.691406 71.992188 25.78125 C 72.089844 25.863281 72.210938 25.882812 72.351562 25.882812 L 75.570312 25.882812 C 75.707031 25.882812 75.832031 25.863281 75.929688 25.78125 C 76.03125 25.691406 76.066406 25.5625 76.0625 25.433594 L 76.0625 16.039062 C 74.640625 16.023438 73.238281 16.015625 71.859375 16.015625 Z M 71.859375 25.433594 "/>
</clipPath>
<linearGradient id="linear1" gradientUnits="userSpaceOnUse" x1="-148.0942" y1="562.7773" x2="-136.2785" y2="562.7773" gradientTransform="matrix(0,1.159398,1.150137,0,-594.596415,184.779699)">
<stop offset="0" style="stop-color:rgb(90.980392%,90.980392%,90.980392%);stop-opacity:1;"/>
<stop offset="0.2053" style="stop-color:rgb(90.980392%,90.980392%,90.980392%);stop-opacity:1;"/>
<stop offset="0.2722" style="stop-color:rgb(75.294118%,74.901961%,75.294118%);stop-opacity:1;"/>
<stop offset="0.3642" style="stop-color:rgb(61.176471%,60%,60.784314%);stop-opacity:1;"/>
<stop offset="0.4623" style="stop-color:rgb(50.588235%,49.803922%,50.588235%);stop-opacity:1;"/>
<stop offset="0.5671" style="stop-color:rgb(43.529412%,42.745098%,43.529412%);stop-opacity:1;"/>
<stop offset="0.6816" style="stop-color:rgb(38.431373%,38.431373%,39.215686%);stop-opacity:1;"/>
<stop offset="0.8131" style="stop-color:rgb(35.686275%,36.078431%,36.862745%);stop-opacity:1;"/>
<stop offset="1" style="stop-color:rgb(34.901961%,35.294118%,36.078431%);stop-opacity:1;"/>
</linearGradient>
<clipPath id="clip7">
  <path d="M 12.042969 35.601562 L 93 35.601562 L 93 43.199219 L 12.042969 43.199219 Z M 12.042969 35.601562 "/>
</clipPath>
<clipPath id="clip8">
  <path d="M 12.417969 37.652344 L 12.417969 39.550781 C 12.417969 41.664062 14.085938 43.148438 16.726562 43.148438 L 17.867188 43.148438 C 19.792969 43.148438 20.832031 42.457031 21.523438 41.5 C 21.738281 41.195312 21.972656 40.871094 21.972656 40.746094 C 21.972656 40.683594 21.921875 40.644531 21.828125 40.605469 L 19.972656 39.769531 C 19.878906 39.730469 19.792969 39.667969 19.695312 39.667969 C 19.625 39.667969 19.558594 39.714844 19.511719 39.8125 C 19.089844 40.683594 18.488281 41.007812 17.867188 41.007812 L 16.726562 41.007812 C 15.824219 41.007812 15.058594 40.339844 15.058594 39.550781 L 15.058594 37.414062 C 14.164062 37.492188 13.277344 37.578125 12.417969 37.652344 M 84.316406 42.742188 C 84.316406 42.882812 84.386719 42.941406 84.546875 42.941406 L 92.734375 42.941406 C 92.894531 42.941406 92.964844 42.882812 92.964844 42.742188 L 92.964844 41.007812 C 92.964844 40.871094 92.894531 40.808594 92.734375 40.808594 L 87.214844 40.808594 C 87.046875 40.808594 86.984375 40.746094 86.984375 40.605469 L 86.984375 37.679688 C 86.101562 37.589844 85.210938 37.5 84.316406 37.414062 Z M 71.40625 42.414062 C 71.355469 42.578125 71.289062 42.699219 71.289062 42.78125 C 71.289062 42.882812 71.386719 42.941406 71.542969 42.941406 L 73.859375 42.941406 C 73.980469 42.941406 74.066406 42.90625 74.09375 42.804688 L 74.785156 40.664062 C 74.816406 40.566406 74.910156 40.542969 75.019531 40.542969 L 78.335938 40.542969 C 78.445312 40.542969 78.542969 40.566406 78.570312 40.664062 L 79.261719 42.804688 C 79.289062 42.90625 79.382812 42.941406 79.496094 42.941406 L 81.839844 42.941406 C 81.996094 42.941406 82.089844 42.882812 82.089844 42.78125 C 82.089844 42.699219 82.023438 42.539062 81.976562 42.414062 L 80.113281 37.042969 C 79.203125 36.96875 78.292969 36.902344 77.382812 36.839844 L 77.664062 37.839844 C 77.707031 37.957031 77.777344 38.140625 77.777344 38.226562 C 77.777344 38.328125 77.6875 38.40625 77.523438 38.40625 L 75.832031 38.40625 C 75.667969 38.40625 75.582031 38.328125 75.582031 38.226562 C 75.582031 38.140625 75.644531 37.957031 75.695312 37.820312 L 76.007812 36.75 C 75.152344 36.691406 74.292969 36.640625 73.425781 36.59375 Z M 24.542969 36.75 L 24.542969 42.742188 C 24.542969 42.882812 24.609375 42.941406 24.773438 42.941406 L 32.960938 42.941406 C 33.125 42.941406 33.191406 42.882812 33.191406 42.742188 L 33.191406 41.007812 C 33.191406 40.871094 33.125 40.808594 32.960938 40.808594 L 27.4375 40.808594 C 27.277344 40.808594 27.207031 40.746094 27.207031 40.605469 L 27.207031 37.714844 C 27.207031 37.574219 27.277344 37.511719 27.4375 37.511719 L 31.960938 37.511719 C 32.125 37.511719 32.199219 37.449219 32.199219 37.3125 L 32.199219 36.375 C 29.582031 36.480469 27.027344 36.605469 24.542969 36.75 M 36.09375 36.234375 L 36.09375 42.742188 C 36.09375 42.882812 36.160156 42.941406 36.324219 42.941406 L 38.523438 42.941406 C 38.6875 42.941406 38.753906 42.882812 38.753906 42.742188 L 38.753906 40.03125 C 38.753906 40.011719 38.753906 39.996094 38.753906 39.976562 C 38.753906 39.921875 38.753906 39.871094 38.753906 39.8125 C 38.753906 39.800781 38.753906 39.789062 38.753906 39.777344 C 38.746094 38.652344 38.703125 37.144531 38.664062 36.15625 C 37.804688 36.179688 36.945312 36.203125 36.09375 36.234375 M 59.59375 42.742188 C 59.59375 42.882812 59.664062 42.941406 59.824219 42.941406 L 62.023438 42.941406 C 62.1875 42.941406 62.261719 42.882812 62.261719 42.742188 L 62.261719 37.714844 C 62.261719 37.574219 62.324219 37.511719 62.484375 37.511719 L 64.554688 37.511719 C 64.648438 37.511719 64.710938 37.554688 64.746094 37.636719 L 66.777344 42.804688 C 66.804688 42.882812 66.894531 42.941406 66.984375 42.941406 L 69.378906 42.941406 C 69.535156 42.941406 69.605469 42.882812 69.605469 42.78125 C 69.605469 42.71875 69.535156 42.601562 69.488281 42.457031 L 67.496094 37.375 C 67.425781 37.210938 67.382812 37.105469 67.382812 37.046875 C 67.382812 36.964844 67.398438 36.925781 67.476562 36.882812 C 67.53125 36.84375 67.59375 36.804688 67.652344 36.769531 C 67.667969 36.753906 67.683594 36.746094 67.695312 36.738281 C 67.742188 36.699219 67.796875 36.664062 67.839844 36.625 C 67.855469 36.617188 67.859375 36.613281 67.875 36.601562 C 67.925781 36.554688 67.984375 36.519531 68.03125 36.46875 C 68.039062 36.460938 68.039062 36.457031 68.050781 36.453125 C 68.09375 36.414062 68.136719 36.375 68.179688 36.332031 C 65.34375 36.21875 62.472656 36.128906 59.59375 36.074219 Z M 43.132812 36.0625 C 43.152344 36.84375 43.183594 37.515625 43.199219 37.820312 C 43.199219 37.828125 43.203125 37.828125 43.203125 37.832031 C 43.203125 37.847656 43.203125 37.859375 43.207031 37.875 C 43.207031 37.890625 43.207031 37.902344 43.210938 37.921875 L 43.117188 37.941406 C 43.050781 37.777344 42.722656 37.046875 42.628906 36.902344 L 42.246094 36.289062 L 42.117188 36.082031 C 41.128906 36.101562 40.144531 36.117188 39.160156 36.144531 C 39.179688 36.171875 39.191406 36.195312 39.199219 36.214844 L 43.347656 42.84375 C 43.394531 42.902344 43.464844 42.945312 43.558594 42.945312 L 45.484375 42.945312 C 45.648438 42.945312 45.714844 42.882812 45.714844 42.742188 L 45.714844 36.027344 C 44.851562 36.03125 43.988281 36.042969 43.132812 36.0625 M 51.101562 42.742188 C 51.101562 42.882812 51.167969 42.941406 51.332031 42.941406 L 53.515625 42.941406 C 53.671875 42.941406 53.742188 42.882812 53.742188 42.742188 L 53.742188 36 C 52.859375 36 51.976562 35.996094 51.101562 35.996094 Z M 51.101562 42.742188 "/>
</clipPath>
<linearGradient id="linear2" gradientUnits="userSpaceOnUse" x1="-304.3369" y1="341.9297" x2="-292.5239" y2="341.9297" gradientTransform="matrix(0,-0.605572,-0.600735,0,258.094965,-141.145632)">
<stop offset="0" style="stop-color:rgb(100%,100%,100%);stop-opacity:1;"/>
<stop offset="0.1698" style="stop-color:rgb(96.078431%,96.078431%,96.078431%);stop-opacity:1;"/>
<stop offset="0.3226" style="stop-color:rgb(88.627451%,88.235294%,88.235294%);stop-opacity:1;"/>
<stop offset="0.4689" style="stop-color:rgb(79.215686%,78.039216%,78.431373%);stop-opacity:1;"/>
<stop offset="0.6112" style="stop-color:rgb(67.058824%,65.490196%,65.490196%);stop-opacity:1;"/>
<stop offset="0.7506" style="stop-color:rgb(52.54902%,51.372549%,51.372549%);stop-opacity:1;"/>
<stop offset="0.8858" style="stop-color:rgb(38.039216%,37.254902%,37.254902%);stop-opacity:1;"/>
<stop offset="1" style="stop-color:rgb(25.882353%,25.882353%,26.27451%);stop-opacity:1;"/>
</linearGradient>
<clipPath id="clip9">
  <path d="M 12.042969 29.601562 L 87 29.601562 L 87 38 L 12.042969 38 Z M 12.042969 29.601562 "/>
</clipPath>
<clipPath id="clip10">
  <path d="M 24.773438 30.132812 C 24.609375 30.132812 24.542969 30.195312 24.542969 30.332031 L 24.542969 36.75 C 27.027344 36.605469 29.582031 36.480469 32.199219 36.375 L 32.199219 35.582031 C 32.199219 35.4375 32.125 35.378906 31.960938 35.378906 L 27.4375 35.378906 C 27.277344 35.378906 27.207031 35.316406 27.207031 35.171875 L 27.207031 32.46875 C 27.207031 32.328125 27.277344 32.265625 27.4375 32.265625 L 32.960938 32.265625 C 33.121094 32.265625 33.191406 32.207031 33.191406 32.058594 L 33.191406 30.332031 C 33.191406 30.195312 33.121094 30.132812 32.960938 30.132812 Z M 36.324219 30.132812 C 36.160156 30.132812 36.09375 30.195312 36.09375 30.332031 L 36.09375 36.234375 C 36.945312 36.203125 37.804688 36.179688 38.664062 36.15625 C 38.652344 35.824219 38.640625 35.554688 38.632812 35.371094 C 38.632812 35.367188 38.632812 35.359375 38.632812 35.359375 C 38.628906 35.328125 38.628906 35.304688 38.625 35.28125 C 38.625 35.273438 38.625 35.269531 38.625 35.265625 C 38.621094 35.234375 38.621094 35.210938 38.621094 35.199219 L 38.714844 35.171875 C 38.777344 35.320312 39.035156 35.910156 39.160156 36.144531 C 40.140625 36.117188 41.128906 36.101562 42.117188 36.082031 L 38.480469 30.234375 C 38.433594 30.171875 38.367188 30.132812 38.269531 30.132812 Z M 43.300781 30.132812 C 43.140625 30.132812 43.074219 30.195312 43.074219 30.332031 L 43.074219 32.898438 C 43.074219 32.953125 43.074219 33.007812 43.074219 33.0625 L 43.074219 33.121094 C 43.074219 33.164062 43.074219 33.199219 43.074219 33.238281 C 43.074219 33.265625 43.074219 33.289062 43.074219 33.316406 C 43.074219 33.351562 43.074219 33.386719 43.074219 33.425781 C 43.074219 33.445312 43.074219 33.476562 43.074219 33.503906 C 43.074219 33.539062 43.074219 33.585938 43.074219 33.628906 L 43.074219 33.6875 C 43.074219 33.738281 43.074219 33.789062 43.074219 33.839844 C 43.074219 33.859375 43.074219 33.871094 43.078125 33.882812 C 43.078125 33.945312 43.078125 34.003906 43.078125 34.066406 C 43.078125 34.078125 43.078125 34.082031 43.078125 34.089844 C 43.082031 34.234375 43.085938 34.378906 43.089844 34.527344 L 43.089844 34.53125 C 43.105469 35.046875 43.117188 35.574219 43.132812 36.0625 C 43.988281 36.042969 44.851562 36.03125 45.714844 36.027344 L 45.714844 30.332031 C 45.714844 30.195312 45.648438 30.132812 45.484375 30.132812 Z M 48.339844 30.132812 C 48.175781 30.132812 48.105469 30.195312 48.105469 30.332031 L 48.105469 32.058594 C 48.105469 32.203125 48.175781 32.265625 48.339844 32.265625 L 50.867188 32.265625 C 51.027344 32.265625 51.101562 32.328125 51.101562 32.46875 L 51.101562 35.996094 C 51.976562 35.996094 52.859375 36 53.742188 36 L 53.742188 32.46875 C 53.742188 32.328125 53.808594 32.265625 53.976562 32.265625 L 56.503906 32.265625 C 56.660156 32.265625 56.734375 32.207031 56.734375 32.058594 L 56.734375 30.332031 C 56.734375 30.195312 56.660156 30.132812 56.503906 30.132812 Z M 62.261719 35.171875 L 62.261719 32.46875 C 62.261719 32.328125 62.324219 32.265625 62.484375 32.265625 L 65.039062 32.265625 C 65.945312 32.265625 66.710938 32.9375 66.710938 33.730469 L 66.710938 33.914062 C 66.710938 34.707031 65.945312 35.378906 65.039062 35.378906 L 62.484375 35.378906 C 62.324219 35.378906 62.261719 35.316406 62.261719 35.171875 M 59.824219 30.132812 C 59.664062 30.132812 59.59375 30.195312 59.59375 30.332031 L 59.59375 36.074219 C 62.472656 36.128906 65.34375 36.21875 68.175781 36.332031 C 68.195312 36.320312 68.207031 36.304688 68.226562 36.289062 C 68.375 36.140625 68.523438 35.976562 68.652344 35.808594 C 68.660156 35.804688 68.667969 35.789062 68.675781 35.78125 C 68.757812 35.671875 68.839844 35.554688 68.910156 35.433594 C 68.929688 35.410156 68.941406 35.386719 68.957031 35.359375 C 68.972656 35.328125 68.992188 35.300781 69.003906 35.269531 C 69.035156 35.234375 69.046875 35.199219 69.066406 35.164062 C 69.085938 35.132812 69.097656 35.101562 69.113281 35.066406 C 69.128906 35.023438 69.148438 34.984375 69.171875 34.941406 C 69.179688 34.921875 69.183594 34.898438 69.191406 34.878906 C 69.210938 34.832031 69.226562 34.789062 69.238281 34.753906 C 69.246094 34.734375 69.253906 34.714844 69.257812 34.695312 C 69.273438 34.640625 69.289062 34.582031 69.300781 34.527344 C 69.308594 34.507812 69.308594 34.496094 69.316406 34.484375 C 69.324219 34.433594 69.328125 34.386719 69.335938 34.34375 C 69.335938 34.328125 69.34375 34.308594 69.34375 34.296875 C 69.351562 34.234375 69.351562 34.175781 69.351562 34.113281 L 69.351562 33.914062 C 69.351562 31.613281 67.679688 30.132812 65.039062 30.132812 Z M 75.855469 30.132812 C 75.734375 30.132812 75.648438 30.171875 75.625 30.269531 L 73.425781 36.59375 C 74.292969 36.640625 75.152344 36.695312 76.007812 36.75 L 76.109375 36.414062 L 76.386719 35.460938 C 76.441406 35.296875 76.621094 34.503906 76.667969 34.335938 L 76.734375 34.335938 C 76.785156 34.503906 76.941406 35.316406 76.992188 35.460938 L 77.382812 36.839844 C 78.296875 36.902344 79.207031 36.96875 80.113281 37.042969 L 79.929688 36.507812 L 77.761719 30.269531 C 77.738281 30.171875 77.640625 30.132812 77.523438 30.132812 Z M 84.546875 30.132812 C 84.386719 30.132812 84.316406 30.195312 84.316406 30.332031 L 84.316406 37.414062 C 85.210938 37.5 86.101562 37.589844 86.984375 37.679688 L 86.984375 30.332031 C 86.984375 30.195312 86.914062 30.132812 86.75 30.132812 Z M 16.726562 29.925781 C 14.085938 29.925781 12.417969 31.414062 12.417969 33.527344 L 12.417969 37.652344 C 13.277344 37.578125 14.164062 37.492188 15.058594 37.414062 L 15.058594 33.527344 C 15.058594 32.734375 15.824219 32.058594 16.726562 32.058594 L 17.867188 32.058594 C 18.488281 32.058594 19.089844 32.382812 19.511719 33.265625 C 19.558594 33.363281 19.625 33.40625 19.695312 33.40625 C 19.792969 33.40625 19.878906 33.34375 19.972656 33.308594 L 21.828125 32.46875 C 21.921875 32.429688 21.972656 32.382812 21.972656 32.328125 C 21.972656 32.207031 21.734375 31.878906 21.523438 31.574219 C 20.832031 30.625 19.792969 29.925781 17.867188 29.925781 Z M 16.726562 29.925781 "/>
</clipPath>
<linearGradient id="linear3" gradientUnits="userSpaceOnUse" x1="-287.561" y1="357.3633" x2="-275.7461" y2="357.3633" gradientTransform="matrix(0,-0.656356,-0.651113,0,282.38472,-151.062831)">
<stop offset="0" style="stop-color:rgb(100%,100%,100%);stop-opacity:1;"/>
<stop offset="0.1193" style="stop-color:rgb(94.901961%,94.117647%,94.117647%);stop-opacity:1;"/>
<stop offset="0.2852" style="stop-color:rgb(84.705882%,83.529412%,83.921569%);stop-opacity:1;"/>
<stop offset="0.4785" style="stop-color:rgb(70.588235%,69.411765%,69.803922%);stop-opacity:1;"/>
<stop offset="0.6925" style="stop-color:rgb(54.117647%,52.54902%,52.941176%);stop-opacity:1;"/>
<stop offset="0.9208" style="stop-color:rgb(36.862745%,35.686275%,36.470588%);stop-opacity:1;"/>
<stop offset="1" style="stop-color:rgb(30.588235%,30.588235%,31.372549%);stop-opacity:1;"/>
</linearGradient>
</defs>
<g id="surface1">
<g clip-path="url(#clip1)" clip-rule="nonzero">
<g clip-path="url(#clip2)" clip-rule="nonzero">
<path style=" stroke:none;fill-rule:nonzero;fill:url(#radial0);" d="M 1.210938 1.65625 L 104.699219 1.65625 L 104.699219 48.726562 L 1.210938 48.726562 Z M 1.210938 1.65625 "/>
</g>
</g>
<path style=" stroke:none;fill-rule:nonzero;fill:rgb(100%,100%,100%);fill-opacity:1;" d="M 69.523438 6.824219 C 69.425781 6.757812 69.304688 6.738281 69.167969 6.738281 L 65.742188 6.734375 C 65.636719 6.734375 65.519531 6.757812 65.425781 6.820312 C 65.347656 6.875 65.28125 6.949219 65.261719 7.0625 L 62.46875 16.066406 L 61.902344 17.890625 C 61.851562 18.054688 61.730469 18.5625 61.640625 18.917969 C 61.632812 18.9375 61.625 18.960938 61.621094 18.984375 C 61.535156 18.625 61.394531 18.03125 61.34375 17.835938 L 60.800781 16.085938 L 57.984375 7.050781 C 57.96875 6.976562 57.929688 6.914062 57.882812 6.867188 C 57.785156 6.773438 57.632812 6.730469 57.503906 6.738281 L 54.109375 6.734375 C 53.972656 6.738281 53.855469 6.757812 53.753906 6.824219 C 53.65625 6.882812 53.582031 7.003906 53.585938 7.125 C 53.589844 7.339844 53.703125 7.546875 53.765625 7.742188 L 56.675781 16.160156 L 59.941406 25.59375 C 59.976562 25.8125 60.203125 25.902344 60.398438 25.902344 C 60.40625 25.902344 60.414062 25.902344 60.417969 25.902344 L 62.863281 25.902344 C 62.957031 25.90625 63.0625 25.886719 63.144531 25.839844 C 63.238281 25.785156 63.316406 25.699219 63.34375 25.578125 L 66.644531 16.035156 L 69.550781 7.628906 L 69.40625 7.578125 L 69.550781 7.613281 C 69.570312 7.519531 69.6875 7.320312 69.695312 7.125 C 69.695312 7.039062 69.660156 6.945312 69.597656 6.882812 C 69.578125 6.859375 69.550781 6.839844 69.523438 6.824219 M 25.101562 17.496094 C 25.359375 17 25.605469 16.265625 25.773438 15.730469 L 25.773438 15.738281 C 25.730469 16.292969 25.679688 17.09375 25.625 17.976562 C 25.539062 19.425781 25.460938 21.097656 25.460938 22.3125 L 25.460938 25.457031 C 25.460938 25.503906 25.460938 25.542969 25.472656 25.589844 C 25.492188 25.671875 25.527344 25.742188 25.589844 25.796875 C 25.691406 25.882812 25.8125 25.90625 25.949219 25.90625 L 29.136719 25.90625 C 29.269531 25.90625 29.394531 25.882812 29.492188 25.796875 C 29.589844 25.710938 29.625 25.582031 29.625 25.457031 L 29.625 7.191406 C 29.625 7.128906 29.617188 7.070312 29.601562 7.015625 C 29.582031 6.949219 29.542969 6.890625 29.492188 6.84375 C 29.394531 6.757812 29.269531 6.738281 29.136719 6.738281 L 26.289062 6.734375 C 26.109375 6.730469 25.933594 6.828125 25.851562 6.992188 L 21.339844 16.527344 C 21.253906 16.699219 21.070312 17.226562 20.949219 17.589844 C 20.941406 17.554688 20.929688 17.519531 20.914062 17.476562 C 20.808594 17.128906 20.667969 16.6875 20.589844 16.523438 L 16.082031 7 C 16.050781 6.9375 16.007812 6.894531 15.957031 6.855469 C 15.863281 6.777344 15.757812 6.734375 15.640625 6.738281 L 12.789062 6.734375 C 12.65625 6.738281 12.53125 6.757812 12.433594 6.84375 C 12.335938 6.929688 12.304688 7.0625 12.304688 7.1875 L 12.304688 25.453125 C 12.304688 25.578125 12.335938 25.710938 12.433594 25.796875 C 12.433594 25.796875 12.433594 25.796875 12.4375 25.796875 C 12.53125 25.882812 12.65625 25.902344 12.789062 25.902344 L 16.015625 25.902344 C 16.148438 25.902344 16.273438 25.882812 16.371094 25.796875 C 16.46875 25.710938 16.5 25.578125 16.5 25.453125 L 16.5 22.308594 C 16.5 21.429688 16.457031 20.308594 16.40625 19.210938 C 16.34375 17.980469 16.265625 16.777344 16.203125 15.964844 C 16.199219 15.886719 16.195312 15.804688 16.1875 15.734375 C 16.355469 16.269531 16.601562 17 16.863281 17.496094 L 17.632812 19.015625 L 19.671875 23.066406 C 19.71875 23.152344 19.789062 23.21875 19.871094 23.265625 C 19.945312 23.308594 20.027344 23.328125 20.121094 23.328125 L 21.847656 23.328125 C 22.027344 23.335938 22.195312 23.230469 22.28125 23.074219 L 24.8125 18.070312 Z M 80.199219 25.882812 C 80.253906 25.902344 80.316406 25.90625 80.386719 25.90625 L 92.355469 25.90625 C 92.488281 25.90625 92.609375 25.882812 92.710938 25.796875 C 92.808594 25.710938 92.847656 25.578125 92.847656 25.453125 L 92.847656 22.90625 C 92.847656 22.78125 92.8125 22.648438 92.710938 22.566406 C 92.609375 22.480469 92.488281 22.460938 92.355469 22.460938 L 84.28125 22.460938 C 84.082031 22.429688 84.121094 22.460938 84.09375 22.3125 L 84.09375 18.054688 C 84.121094 17.90625 84.082031 17.941406 84.28125 17.910156 L 90.886719 17.910156 C 91.023438 17.910156 91.15625 17.890625 91.253906 17.804688 C 91.351562 17.71875 91.386719 17.585938 91.386719 17.457031 L 91.386719 14.914062 C 91.386719 14.820312 91.371094 14.726562 91.320312 14.648438 C 91.300781 14.621094 91.28125 14.59375 91.253906 14.566406 C 91.15625 14.484375 91.023438 14.460938 90.886719 14.460938 L 84.28125 14.460938 C 84.082031 14.429688 84.121094 14.464844 84.09375 14.316406 L 84.09375 10.332031 C 84.113281 10.226562 84.101562 10.210938 84.160156 10.199219 C 84.183594 10.195312 84.21875 10.195312 84.28125 10.1875 L 92.355469 10.1875 C 92.488281 10.1875 92.609375 10.164062 92.710938 10.078125 C 92.8125 9.988281 92.847656 9.859375 92.847656 9.730469 L 92.847656 7.191406 C 92.847656 7.070312 92.816406 6.960938 92.734375 6.875 C 92.726562 6.863281 92.722656 6.851562 92.710938 6.84375 C 92.609375 6.757812 92.488281 6.738281 92.355469 6.738281 L 80.386719 6.734375 C 80.246094 6.738281 80.121094 6.757812 80.03125 6.84375 C 79.925781 6.929688 79.894531 7.0625 79.894531 7.1875 L 79.894531 25.453125 C 79.894531 25.578125 79.925781 25.710938 80.03125 25.796875 C 80.078125 25.839844 80.136719 25.867188 80.199219 25.882812 M 72.25 25.90625 L 75.46875 25.90625 C 75.609375 25.90625 75.730469 25.882812 75.832031 25.796875 C 75.929688 25.710938 75.96875 25.578125 75.964844 25.453125 L 75.964844 7.191406 C 75.96875 7.0625 75.929688 6.929688 75.832031 6.84375 C 75.730469 6.757812 75.609375 6.738281 75.46875 6.738281 L 72.25 6.734375 C 72.117188 6.738281 71.992188 6.757812 71.894531 6.84375 C 71.796875 6.933594 71.765625 7.0625 71.765625 7.1875 L 71.765625 25.453125 C 71.765625 25.578125 71.796875 25.710938 71.894531 25.796875 C 71.992188 25.882812 72.117188 25.90625 72.25 25.90625 M 80.011719 37.0625 L 79.824219 36.527344 L 77.660156 30.289062 C 77.632812 30.191406 77.542969 30.152344 77.425781 30.152344 L 75.757812 30.152344 C 75.636719 30.152344 75.550781 30.191406 75.527344 30.289062 L 73.328125 36.609375 L 71.304688 42.4375 C 71.257812 42.601562 71.183594 42.726562 71.183594 42.804688 C 71.183594 42.90625 71.28125 42.96875 71.4375 42.96875 L 73.761719 42.96875 C 73.882812 42.96875 73.972656 42.929688 73.996094 42.824219 L 74.6875 40.691406 C 74.714844 40.585938 74.804688 40.566406 74.921875 40.566406 L 78.238281 40.566406 C 78.351562 40.566406 78.445312 40.585938 78.472656 40.691406 L 79.167969 42.824219 C 79.1875 42.929688 79.28125 42.96875 79.398438 42.96875 L 81.738281 42.96875 C 81.902344 42.96875 81.996094 42.90625 81.996094 42.804688 C 81.996094 42.726562 81.921875 42.5625 81.882812 42.4375 Z M 77.425781 38.429688 L 75.730469 38.429688 C 75.570312 38.429688 75.480469 38.347656 75.480469 38.25 C 75.480469 38.167969 75.550781 37.980469 75.589844 37.839844 L 75.910156 36.769531 L 76.003906 36.4375 L 76.289062 35.484375 C 76.335938 35.316406 76.523438 34.523438 76.570312 34.359375 L 76.632812 34.359375 C 76.683594 34.523438 76.84375 35.335938 76.886719 35.484375 L 77.28125 36.859375 L 77.5625 37.859375 C 77.609375 37.980469 77.679688 38.167969 77.679688 38.25 C 77.679688 38.347656 77.585938 38.429688 77.425781 38.429688 M 92.640625 40.828125 L 87.117188 40.828125 C 86.957031 40.828125 86.886719 40.765625 86.886719 40.628906 L 86.886719 30.351562 C 86.886719 30.210938 86.820312 30.152344 86.652344 30.152344 L 84.449219 30.152344 C 84.289062 30.152344 84.21875 30.210938 84.21875 30.351562 L 84.21875 42.765625 C 84.21875 42.90625 84.289062 42.96875 84.449219 42.96875 L 92.640625 42.96875 C 92.796875 42.96875 92.871094 42.90625 92.871094 42.765625 L 92.871094 41.035156 C 92.871094 40.890625 92.796875 40.828125 92.640625 40.828125 M 67.394531 37.394531 C 67.324219 37.226562 67.28125 37.128906 67.28125 37.070312 C 67.28125 36.988281 67.304688 36.945312 67.371094 36.90625 C 67.429688 36.871094 67.488281 36.832031 67.550781 36.789062 C 67.570312 36.777344 67.582031 36.769531 67.601562 36.757812 C 67.648438 36.71875 67.691406 36.6875 67.742188 36.652344 C 67.75 36.636719 67.765625 36.628906 67.773438 36.625 C 67.828125 36.578125 67.878906 36.535156 67.9375 36.484375 L 67.945312 36.476562 C 67.992188 36.4375 68.03125 36.398438 68.074219 36.351562 C 68.09375 36.339844 68.109375 36.324219 68.125 36.308594 C 68.277344 36.160156 68.421875 36 68.554688 35.832031 C 68.5625 35.820312 68.566406 35.8125 68.574219 35.804688 C 68.660156 35.6875 68.738281 35.574219 68.8125 35.457031 C 68.828125 35.433594 68.84375 35.40625 68.859375 35.382812 C 68.875 35.355469 68.890625 35.324219 68.910156 35.296875 C 68.929688 35.257812 68.949219 35.21875 68.964844 35.183594 C 68.984375 35.148438 69 35.117188 69.011719 35.085938 C 69.03125 35.046875 69.050781 35.003906 69.066406 34.960938 C 69.082031 34.941406 69.089844 34.921875 69.09375 34.898438 C 69.109375 34.859375 69.125 34.8125 69.140625 34.769531 C 69.148438 34.753906 69.15625 34.734375 69.15625 34.71875 C 69.175781 34.660156 69.191406 34.601562 69.203125 34.546875 C 69.207031 34.53125 69.210938 34.515625 69.210938 34.503906 C 69.21875 34.457031 69.234375 34.414062 69.234375 34.363281 C 69.238281 34.347656 69.238281 34.328125 69.238281 34.3125 C 69.246094 34.253906 69.253906 34.195312 69.253906 34.132812 L 69.253906 33.933594 C 69.253906 31.632812 67.582031 30.152344 64.941406 30.152344 L 59.722656 30.152344 C 59.558594 30.152344 59.488281 30.210938 59.488281 30.351562 L 59.488281 42.765625 C 59.488281 42.90625 59.558594 42.96875 59.722656 42.96875 L 61.921875 42.96875 C 62.085938 42.96875 62.15625 42.90625 62.15625 42.765625 L 62.15625 37.738281 C 62.15625 37.597656 62.226562 37.535156 62.386719 37.535156 L 64.449219 37.535156 C 64.542969 37.535156 64.613281 37.574219 64.636719 37.660156 L 66.675781 42.824219 C 66.703125 42.90625 66.796875 42.96875 66.886719 42.96875 L 69.273438 42.96875 C 69.4375 42.96875 69.507812 42.90625 69.507812 42.804688 C 69.507812 42.742188 69.4375 42.617188 69.390625 42.480469 Z M 66.605469 33.933594 C 66.605469 34.726562 65.839844 35.398438 64.941406 35.398438 L 62.386719 35.398438 C 62.226562 35.398438 62.160156 35.335938 62.160156 35.191406 L 62.160156 32.488281 C 62.160156 32.347656 62.226562 32.285156 62.386719 32.285156 L 64.941406 32.285156 C 65.839844 32.285156 66.605469 32.960938 66.605469 33.753906 Z M 32.847656 30.152344 L 24.667969 30.152344 C 24.503906 30.152344 24.433594 30.210938 24.433594 30.351562 L 24.433594 42.765625 C 24.433594 42.90625 24.503906 42.96875 24.667969 42.96875 L 32.847656 42.96875 C 33.011719 42.96875 33.082031 42.90625 33.082031 42.765625 L 33.082031 41.035156 C 33.082031 40.890625 33.011719 40.828125 32.847656 40.828125 L 27.335938 40.828125 C 27.171875 40.828125 27.101562 40.765625 27.101562 40.628906 L 27.101562 37.738281 C 27.101562 37.597656 27.171875 37.535156 27.335938 37.535156 L 31.859375 37.535156 C 32.015625 37.535156 32.085938 37.476562 32.085938 37.328125 L 32.085938 35.601562 C 32.085938 35.460938 32.015625 35.398438 31.859375 35.398438 L 27.335938 35.398438 C 27.171875 35.398438 27.101562 35.335938 27.101562 35.191406 L 27.101562 32.488281 C 27.101562 32.347656 27.171875 32.285156 27.335938 32.285156 L 32.847656 32.285156 C 33.011719 32.285156 33.082031 32.222656 33.082031 32.085938 L 33.082031 30.351562 C 33.082031 30.210938 33.011719 30.152344 32.847656 30.152344 M 45.378906 30.152344 L 43.199219 30.152344 C 43.035156 30.152344 42.964844 30.210938 42.964844 30.351562 L 42.964844 32.917969 C 42.964844 32.976562 42.964844 33.03125 42.964844 33.085938 C 42.964844 33.105469 42.964844 33.128906 42.964844 33.144531 L 42.964844 33.257812 C 42.964844 33.285156 42.964844 33.3125 42.96875 33.335938 C 42.96875 33.371094 42.96875 33.414062 42.96875 33.445312 C 42.96875 33.472656 42.96875 33.496094 42.96875 33.523438 C 42.96875 33.566406 42.96875 33.601562 42.96875 33.644531 C 42.96875 33.667969 42.972656 33.691406 42.972656 33.710938 C 42.972656 33.757812 42.972656 33.808594 42.972656 33.863281 C 42.972656 33.878906 42.972656 33.890625 42.972656 33.90625 C 42.976562 33.96875 42.976562 34.027344 42.976562 34.085938 C 42.976562 34.09375 42.976562 34.109375 42.976562 34.113281 C 42.980469 34.253906 42.984375 34.398438 42.984375 34.546875 L 42.984375 34.554688 C 42.996094 35.066406 43.011719 35.59375 43.027344 36.082031 C 43.050781 36.871094 43.078125 37.542969 43.097656 37.839844 C 43.097656 37.847656 43.101562 37.855469 43.101562 37.855469 C 43.101562 37.871094 43.101562 37.886719 43.105469 37.898438 C 43.105469 37.914062 43.105469 37.929688 43.105469 37.941406 L 43.011719 37.964844 C 42.941406 37.796875 42.621094 37.070312 42.523438 36.921875 L 42.144531 36.308594 L 42.011719 36.101562 L 38.375 30.25 C 38.332031 30.191406 38.257812 30.152344 38.167969 30.152344 L 36.21875 30.152344 C 36.058594 30.152344 35.988281 30.210938 35.988281 30.355469 L 35.988281 42.765625 C 35.988281 42.910156 36.058594 42.96875 36.21875 42.96875 L 38.417969 42.96875 C 38.582031 42.96875 38.652344 42.910156 38.652344 42.765625 L 38.652344 40.242188 C 38.652344 40.183594 38.652344 40.117188 38.652344 40.050781 L 38.652344 40 C 38.652344 39.945312 38.652344 39.890625 38.652344 39.835938 C 38.652344 39.824219 38.652344 39.8125 38.652344 39.796875 C 38.640625 38.675781 38.601562 37.167969 38.5625 36.179688 C 38.550781 35.847656 38.539062 35.574219 38.527344 35.394531 C 38.523438 35.386719 38.523438 35.382812 38.523438 35.375 C 38.523438 35.347656 38.523438 35.324219 38.519531 35.304688 C 38.519531 35.296875 38.519531 35.289062 38.519531 35.28125 C 38.515625 35.257812 38.515625 35.234375 38.515625 35.21875 L 38.609375 35.191406 C 38.667969 35.335938 38.933594 35.9375 39.058594 36.164062 C 39.070312 36.195312 39.085938 36.21875 39.097656 36.234375 L 43.242188 42.867188 C 43.289062 42.929688 43.363281 42.96875 43.453125 42.96875 L 45.378906 42.96875 C 45.539062 42.96875 45.609375 42.90625 45.609375 42.765625 L 45.609375 30.351562 C 45.609375 30.210938 45.539062 30.152344 45.378906 30.152344 M 16.617188 32.085938 L 17.753906 32.085938 C 18.382812 32.085938 18.984375 32.40625 19.398438 33.28125 C 19.445312 33.382812 19.515625 33.425781 19.582031 33.425781 C 19.679688 33.425781 19.769531 33.363281 19.867188 33.324219 L 21.71875 32.488281 C 21.8125 32.449219 21.863281 32.40625 21.863281 32.347656 C 21.863281 32.222656 21.628906 31.898438 21.417969 31.597656 C 20.71875 30.636719 19.679688 29.949219 17.753906 29.949219 L 16.617188 29.949219 C 13.972656 29.949219 12.304688 31.429688 12.304688 33.542969 L 12.304688 39.566406 C 12.304688 41.683594 13.972656 43.171875 16.617188 43.171875 L 17.753906 43.171875 C 19.679688 43.171875 20.71875 42.480469 21.417969 41.523438 C 21.628906 41.21875 21.863281 40.890625 21.863281 40.765625 C 21.863281 40.710938 21.8125 40.671875 21.71875 40.628906 L 19.867188 39.792969 C 19.769531 39.75 19.679688 39.6875 19.582031 39.6875 C 19.515625 39.6875 19.445312 39.730469 19.398438 39.835938 C 18.984375 40.710938 18.382812 41.035156 17.753906 41.035156 L 16.617188 41.035156 C 15.714844 41.035156 14.949219 40.363281 14.949219 39.566406 L 14.949219 33.542969 C 14.949219 32.75 15.714844 32.085938 16.617188 32.085938 M 56.398438 30.152344 L 48.234375 30.152344 C 48.074219 30.152344 48.003906 30.210938 48.003906 30.351562 L 48.003906 32.085938 C 48.003906 32.222656 48.074219 32.285156 48.234375 32.285156 L 50.765625 32.285156 C 50.929688 32.285156 50.996094 32.347656 50.996094 32.488281 L 50.996094 42.765625 C 50.996094 42.90625 51.066406 42.96875 51.226562 42.96875 L 53.410156 42.96875 C 53.570312 42.96875 53.640625 42.90625 53.640625 42.765625 L 53.640625 32.488281 C 53.640625 32.347656 53.707031 32.285156 53.871094 32.285156 L 56.398438 32.285156 C 56.566406 32.285156 56.628906 32.222656 56.628906 32.085938 L 56.628906 30.351562 C 56.628906 30.210938 56.566406 30.152344 56.398438 30.152344 "/>
<path style=" stroke:none;fill-rule:nonzero;fill:rgb(94.901961%,94.901961%,94.901961%);fill-opacity:1;" d="M 29.613281 6.84375 C 29.507812 6.757812 29.386719 6.738281 29.25 6.738281 L 26.402344 6.734375 C 26.226562 6.730469 26.050781 6.828125 25.964844 6.992188 L 21.453125 16.527344 C 21.371094 16.699219 21.1875 17.226562 21.066406 17.589844 C 21.054688 17.558594 21.046875 17.519531 21.03125 17.476562 C 20.925781 17.128906 20.785156 16.6875 20.707031 16.523438 L 16.195312 7 C 16.164062 6.9375 16.121094 6.894531 16.074219 6.855469 C 15.984375 6.777344 15.871094 6.734375 15.753906 6.738281 L 12.90625 6.734375 C 12.773438 6.738281 12.648438 6.757812 12.550781 6.84375 C 12.453125 6.929688 12.417969 7.0625 12.417969 7.1875 L 12.417969 19.9375 C 13.703125 19.6875 15.066406 19.445312 16.523438 19.210938 C 16.457031 17.980469 16.378906 16.777344 16.320312 15.964844 C 16.3125 15.886719 16.3125 15.804688 16.304688 15.734375 C 16.472656 16.269531 16.71875 17 16.980469 17.5 L 17.742188 19.015625 C 19.9375 18.683594 22.332031 18.359375 24.929688 18.070312 L 25.21875 17.496094 C 25.476562 17 25.722656 16.265625 25.894531 15.730469 L 25.894531 15.738281 C 25.851562 16.292969 25.796875 17.09375 25.742188 17.976562 C 27.023438 17.835938 28.359375 17.703125 29.742188 17.574219 L 29.742188 7.1875 C 29.742188 7.128906 29.734375 7.066406 29.71875 7.015625 C 29.695312 6.949219 29.660156 6.890625 29.613281 6.84375 M 92.851562 6.871094 C 92.847656 6.859375 92.839844 6.851562 92.824219 6.84375 C 92.730469 6.757812 92.605469 6.738281 92.46875 6.738281 L 80.5 6.734375 C 80.363281 6.738281 80.238281 6.757812 80.144531 6.84375 C 80.039062 6.929688 80.011719 7.0625 80.011719 7.1875 L 80.011719 16.101562 C 83.6875 16.148438 87.515625 16.230469 91.5 16.332031 L 91.5 14.914062 C 91.507812 14.820312 91.488281 14.726562 91.433594 14.648438 C 91.417969 14.621094 91.398438 14.59375 91.371094 14.566406 C 91.269531 14.484375 91.140625 14.460938 91.003906 14.460938 L 84.398438 14.460938 C 84.195312 14.429688 84.238281 14.464844 84.210938 14.316406 L 84.210938 10.332031 C 84.230469 10.226562 84.214844 10.210938 84.273438 10.199219 C 84.300781 10.195312 84.335938 10.195312 84.398438 10.1875 L 92.46875 10.1875 C 92.605469 10.1875 92.730469 10.164062 92.832031 10.078125 C 92.929688 9.984375 92.964844 9.859375 92.964844 9.730469 L 92.964844 7.191406 C 92.964844 7.070312 92.929688 6.960938 92.851562 6.871094 M 75.585938 6.738281 L 72.363281 6.734375 C 72.234375 6.738281 72.109375 6.757812 72.007812 6.84375 C 71.910156 6.933594 71.878906 7.0625 71.878906 7.1875 L 71.878906 16.03125 C 73.253906 16.035156 74.65625 16.046875 76.082031 16.054688 L 76.082031 7.191406 C 76.082031 7.0625 76.046875 6.929688 75.945312 6.84375 C 75.847656 6.757812 75.722656 6.738281 75.585938 6.738281 M 69.640625 6.824219 C 69.542969 6.757812 69.417969 6.738281 69.28125 6.738281 L 65.863281 6.734375 C 65.75 6.734375 65.636719 6.757812 65.542969 6.820312 C 65.460938 6.871094 65.398438 6.949219 65.375 7.0625 L 62.585938 16.066406 C 63.949219 16.050781 65.34375 16.039062 66.757812 16.035156 C 66.757812 16.035156 69.800781 7.316406 69.808594 7.125 C 69.8125 7.039062 69.773438 6.945312 69.714844 6.882812 C 69.695312 6.859375 69.667969 6.839844 69.640625 6.824219 M 58 6.867188 C 57.894531 6.773438 57.746094 6.730469 57.621094 6.738281 L 54.226562 6.734375 C 54.089844 6.738281 53.972656 6.757812 53.871094 6.824219 C 53.773438 6.882812 53.699219 7.003906 53.699219 7.125 C 53.707031 7.339844 53.820312 7.546875 53.882812 7.742188 L 56.792969 16.160156 C 58.136719 16.128906 59.511719 16.105469 60.914062 16.085938 L 58.101562 7.050781 C 58.082031 6.976562 58.042969 6.914062 58 6.867188 "/>
<g clip-path="url(#clip3)" clip-rule="nonzero">
<g clip-path="url(#clip4)" clip-rule="nonzero">
<path style=" stroke:none;fill-rule:nonzero;fill:url(#linear0);" d="M 51.175781 0 L 58.75 24.664062 L 34.28125 32.300781 L 26.707031 7.632812 Z M 51.175781 0 "/>
</g>
</g>
<g clip-path="url(#clip5)" clip-rule="nonzero">
<g clip-path="url(#clip6)" clip-rule="nonzero">
<path style=" stroke:none;fill-rule:nonzero;fill:url(#linear1);" d="M 12.410156 16.015625 L 92.941406 16.015625 L 92.941406 25.886719 L 12.410156 25.886719 Z M 12.410156 16.015625 "/>
</g>
</g>
<g clip-path="url(#clip7)" clip-rule="nonzero">
<g clip-path="url(#clip8)" clip-rule="nonzero">
<path style=" stroke:none;fill-rule:nonzero;fill:url(#linear2);" d="M 12.417969 35.996094 L 92.964844 35.996094 L 92.964844 43.148438 L 12.417969 43.148438 Z M 12.417969 35.996094 "/>
</g>
</g>
<g clip-path="url(#clip9)" clip-rule="nonzero">
<g clip-path="url(#clip10)" clip-rule="nonzero">
<path style=" stroke:none;fill-rule:nonzero;fill:url(#linear3);" d="M 12.417969 29.925781 L 86.984375 29.925781 L 86.984375 37.679688 L 12.417969 37.679688 Z M 12.417969 29.925781 "/>
</g>
</g>
</g>
</svg>
